<svg xmlns="http://www.w3.org/2000/svg" viewBox="0 0 640 200" width="640" height="200" role="img" aria-label="Earlier titles art tile">
  <defs>
    <linearGradient id="et-bg" x1="0" y1="0" x2="1" y2="1">
      <stop offset="0" stop-color="#121010"/>
      <stop offset="0.55" stop-color="#1e1a15"/>
      <stop offset="1" stop-color="#2c241b"/>
    </linearGradient>
    <radialGradient id="et-glow" cx="0.5" cy="0.5" r="0.5">
      <stop offset="0" stop-color="#e0a458" stop-opacity="0.30"/>
      <stop offset="1" stop-color="#e0a458" stop-opacity="0"/>
    </radialGradient>
    <linearGradient id="et-far" x1="0" y1="0" x2="0" y2="1">
      <stop offset="0" stop-color="#4a4038"/>
      <stop offset="1" stop-color="#241f1a"/>
    </linearGradient>
    <linearGradient id="et-near" x1="0" y1="0" x2="0" y2="1">
      <stop offset="0" stop-color="#6b5c4c"/>
      <stop offset="1" stop-color="#2d2620"/>
    </linearGradient>
    <linearGradient id="et-gold" x1="0" y1="0" x2="0.4" y2="1">
      <stop offset="0" stop-color="#e9b877"/>
      <stop offset="0.5" stop-color="#d69a4e"/>
      <stop offset="1" stop-color="#8f6127"/>
    </linearGradient>
  </defs>

  <rect width="640" height="200" fill="url(#et-bg)"/>
  <ellipse cx="320" cy="100" rx="252" ry="140" fill="url(#et-glow)"/>

  <g fill="none" stroke="#e8d3b4" stroke-opacity="0.06">
    <rect x="46" y="26" width="42" height="42" rx="8" transform="rotate(45 67 47)"/>
    <rect x="556" y="132" width="38" height="38" rx="8" transform="rotate(45 575 151)"/>
    <rect x="580" y="18" width="26" height="26" rx="6" transform="rotate(45 593 31)"/>
    <rect x="34" y="140" width="30" height="30" rx="6" transform="rotate(45 49 155)"/>
  </g>

  <g transform="translate(320 100) rotate(-7)" stroke="#f0dcbe" stroke-opacity="0.22">
    <rect x="-215" y="-48" width="104" height="96" rx="16" fill="url(#et-far)" fill-opacity="0.9"/>
    <rect x="-135" y="-56" width="104" height="112" rx="16" fill="url(#et-near)"/>
    <rect x="105" y="-48" width="104" height="96" rx="16" fill="url(#et-far)" fill-opacity="0.9"/>
    <rect x="25" y="-56" width="104" height="112" rx="16" fill="url(#et-near)"/>
    <rect x="-55" y="-66" width="106" height="132" rx="18" fill="url(#et-gold)" stroke="#ffe0b0" stroke-opacity="0.3"/>
    <rect x="-40" y="-50" width="76" height="100" rx="10" fill="none" stroke="#3a2a12" stroke-opacity="0.28"/>
  </g>

  <g fill="#e0a458">
    <circle cx="118" cy="168" r="2.5" fill-opacity="0.45"/>
    <circle cx="524" cy="40" r="2.5" fill-opacity="0.4"/>
    <circle cx="92" cy="96" r="2" fill-opacity="0.28"/>
    <circle cx="556" cy="98" r="2" fill-opacity="0.24"/>
  </g>
</svg>
